<svg fill="#FFFFFF" xmlns="http://www.w3.org/2000/svg"  viewBox="0 0 24 24" width="48px" height="48px"><path d="M 2.8769531 1.9921875 L 4.84375 19.876953 L 11.992188 22.066406 L 12.285156 21.976562 L 19.140625 19.876953 L 21.123047 1.9921875 L 2.8769531 1.9921875 z M 5.1074219 3.9921875 L 18.890625 3.9921875 L 17.298828 18.349609 L 11.992188 19.974609 L 6.6875 18.349609 L 5.1074219 3.9921875 z M 7.0957031 5.9941406 L 7.796875 11.994141 L 14.191406 11.994141 L 13.916016 14.392578 L 11.994141 14.953125 L 10.085938 14.394531 L 10.027344 13.857422 L 9.9160156 12.863281 L 7.9296875 13.083984 L 8.0390625 14.078125 L 8.2460938 15.939453 L 11.992188 17.035156 L 15.75 15.941406 L 16.435547 9.9941406 L 9.5761719 9.9941406 L 9.34375 7.9941406 L 15.779297 7.9941406 L 16.779297 7.9941406 L 16.779297 5.9941406 L 15.779297 5.9941406 L 7.0957031 5.9941406 z"/></svg>